Coordinates
version=1
nRows=35
nColumns=38
inDegrees=no

Units are S.I. units (second, meters, Newtons, ...)
If the header above contains a line with 'inDegrees', this indicates whether rotational values are in degrees (yes) or radians (no).

endheader
time	pelvis_tilt	pelvis_list	pelvis_rotation	pelvis_tx	pelvis_ty	pelvis_tz	hip_flexion_r	hip_adduction_r	hip_rotation_r	knee_angle_r	ankle_angle_r	subtalar_angle_r	mtp_angle_r	hip_flexion_l	hip_adduction_l	hip_rotation_l	knee_angle_l	ankle_angle_l	subtalar_angle_l	mtp_angle_l	lumbar_extension	lumbar_bending	lumbar_rotation	arm_flex_r	arm_add_r	arm_rot_r	elbow_flex_r	pro_sup_r	wrist_flex_r	wrist_dev_r	arm_flex_l	arm_add_l	arm_rot_l	elbow_flex_l	pro_sup_l	wrist_flex_l	wrist_dev_l
60	-3.13817	1.44542	-1.60453	0.657634	0.237595	0.939134	-0.131615	-0.0749496	-0.400311	0	-0.144572	0	0	-0.121526	-0.0405478	-0.361916	0	-0.144083	0	0	-0.311179	-0.0367376	0.0565953	0.52277	-0.446893	0.163532	1.0738	0.989707	0	0	0.408133	-0.357925	-0.010322	1.42338	1.00018	0	0
60.01	-3.13307	1.44511	-1.60944	0.657475	0.237816	0.939227	-0.131823	-0.0758164	-0.400612	0	-0.14403	0	0	-0.121615	-0.0399225	-0.3605	0	-0.143481	0	0	-0.311664	-0.0369266	0.0559444	0.518805	-0.443556	0.150642	1.07496	1.08651	0	0	0.40634	-0.35912	-0.0107232	1.42504	0.998469	0	0
60.02	-3.12871	1.4458	-1.61392	0.657321	0.238044	0.939311	-0.130898	-0.0765663	-0.399748	0	-0.143941	0	0	-0.120583	-0.0394746	-0.359273	0	-0.143398	0	0	-0.310941	-0.0369823	0.0556017	0.517595	-0.434657	0.126457	1.06678	1.22935	0	0	0.405219	-0.359592	-0.0109456	1.42448	0.996094	0	0
60.03	-3.12576	1.44402	-1.61893	0.656705	0.238081	0.939408	-0.131938	-0.0782729	-0.396157	0	-0.143753	0	0	-0.122142	-0.0382399	-0.360459	0	-0.142543	0	0	-0.314547	-0.0365667	0.0584804	0.531116	-0.439533	0.0524537	1.0335	1.43363	0	0	0.406534	-0.35874	-0.0088982	1.42441	0.992931	0	0
60.04	-3.12564	1.44335	-1.61879	0.656467	0.238325	0.939525	-0.132738	-0.0787635	-0.396528	0	-0.143504	0	0	-0.1226	-0.0381826	-0.359201	0	-0.142007	0	0	-0.315384	-0.0357648	0.0575513	0.530832	-0.440477	0.0645434	1.03424	1.3855	0	0	0.405889	-0.360101	-0.00686194	1.42389	0.98911	0	0
60.05	-3.127	1.44256	-1.61773	0.656309	0.238605	0.939621	-0.133648	-0.0791186	-0.396403	0	-0.143496	0	0	-0.123227	-0.0382717	-0.359265	0	-0.141745	0	0	-0.316213	-0.0349147	0.0575659	0.529728	-0.441918	0.0774275	1.03649	1.33488	0	0	0.405416	-0.361311	-0.00550151	1.42368	0.986248	0	0
60.06	-3.13039	1.4417	-1.61467	0.6561	0.238829	0.939695	-0.134641	-0.0791178	-0.396795	0	-0.143376	0	0	-0.123989	-0.0385745	-0.358996	0	-0.141026	0	0	-0.317171	-0.0337782	0.057937	0.528499	-0.443645	0.0901596	1.03914	1.28124	0	0	0.405194	-0.362484	-0.00386354	1.423	0.984733	0	0
60.07	-3.13264	1.44042	-1.61305	0.655954	0.239102	0.939799	-0.136047	-0.0793304	-0.397012	0	-0.143438	0	0	-0.125236	-0.0385406	-0.359339	0	-0.13968	0	0	-0.318541	-0.0328389	0.0585317	0.527455	-0.445396	0.102562	1.04172	1.22461	0	0	0.404898	-0.363473	-0.00203491	1.42202	0.984071	0	0
60.08	-3.13267	1.43896	-1.61401	0.655779	0.239289	0.939926	-0.137629	-0.0798081	-0.397156	0	-0.143465	0	0	-0.126737	-0.038146	-0.359979	0	-0.138718	0	0	-0.320059	-0.032386	0.059288	0.526485	-0.447041	0.115133	1.04452	1.1652	0	0	0.40445	-0.364374	-0.000347051	1.4211	0.983528	0	0
60.09	-3.13327	1.4383	-1.61449	0.655614	0.239431	0.939954	-0.138338	-0.0800914	-0.397046	0	-0.143141	0	0	-0.127358	-0.0378978	-0.360582	0	-0.137851	0	0	-0.320663	-0.0319196	0.0600564	0.525193	-0.448751	0.128884	1.04862	1.10308	0	0	0.403596	-0.364901	0.00058765	1.42049	0.983475	0	0
60.1	-3.13317	1.43779	-1.61577	0.65554	0.239755	0.939945	-0.138772	-0.0804719	-0.397264	0	-0.142676	0	0	-0.127794	-0.0374949	-0.361064	0	-0.137171	0	0	-0.321027	-0.0315783	0.0609683	0.523689	-0.450643	0.142635	1.05386	1.03736	0	0	0.402659	-0.365223	0.0011359	1.41993	0.984526	0	0
60.11	-3.1349	1.4372	-1.61549	0.655306	0.239672	0.939994	-0.139425	-0.0806227	-0.397043	0	-0.14267	0	0	-0.128503	-0.0373066	-0.361957	0	-0.136186	0	0	-0.321538	-0.0310086	0.062582	0.521841	-0.45319	0.155609	1.06033	0.96779	0	0	0.402033	-0.365119	0.00160437	1.41895	0.986786	0	0
60.12	-3.13669	1.43597	-1.61546	0.655179	0.239809	0.940069	-0.14068	-0.0808605	-0.395951	0	-0.143177	0	0	-0.129906	-0.0370453	-0.362677	0	-0.135834	0	0	-0.322716	-0.0305498	0.0648793	0.519774	-0.456665	0.169379	1.06819	0.894845	0	0	0.401542	-0.364536	0.00187159	1.41803	0.988846	0	0
60.13	-3.13954	1.43305	-1.61083	0.655126	0.241341	0.94045	-0.148577	-0.0803566	-0.390183	0	-0.149102	0	0	-0.135699	-0.0375794	-0.3615	0	-0.137789	0	0	-0.318995	-0.0303604	0.0632444	0.503496	-0.456365	0.194111	1.08237	0.822289	0	0	0.393492	-0.363393	0.000524007	1.41636	0.987892	0	0
60.14	-3.14132	1.43293	-1.61062	0.65499	0.241448	0.940459	-0.148598	-0.0805348	-0.389922	0	-0.149247	0	0	-0.135954	-0.0374702	-0.362328	0	-0.137007	0	0	-0.318995	-0.0298633	0.0651226	0.502953	-0.45728	0.194228	1.08159	0.825178	0	0	0.392065	-0.361838	0.000593908	1.41668	0.985503	0	0
60.15	3.1407	1.43301	-1.61104	0.654878	0.241566	0.940444	-0.148361	-0.080851	-0.389245	0	-0.14921	0	0	-0.136106	-0.0372675	-0.363003	0	-0.136323	0	0	-0.318798	-0.0294454	0.0667089	0.503106	-0.458043	0.193836	1.08045	0.827335	0	0	0.390125	-0.360373	-0.000443508	1.41697	0.985067	0	0
60.16	3.14116	1.43325	-1.61319	0.654767	0.241673	0.940416	-0.147852	-0.0814211	-0.388149	0	-0.149135	0	0	-0.136092	-0.0367881	-0.364177	0	-0.135556	0	0	-0.318492	-0.0292373	0.068035	0.503427	-0.458595	0.193939	1.0793	0.826824	0	0	0.387995	-0.359215	-0.00206578	1.41741	0.985465	0	0
60.17	-3.14132	1.43334	-1.61561	0.654672	0.241765	0.94041	-0.14749	-0.0820416	-0.386778	0	-0.148961	0	0	-0.136304	-0.0362276	-0.365591	0	-0.134747	0	0	-0.318417	-0.0290621	0.0692978	0.503372	-0.459104	0.195063	1.07876	0.824933	0	0	0.386123	-0.358401	-0.00328783	1.41783	0.985689	0	0
60.18	-3.14083	1.43327	-1.61762	0.654568	0.241846	0.940427	-0.147374	-0.0825858	-0.385556	0	-0.149205	0	0	-0.136683	-0.0357064	-0.366771	0	-0.134099	0	0	-0.318568	-0.0288044	0.0705537	0.502703	-0.459572	0.196556	1.07886	0.822892	0	0	0.384855	-0.357731	-0.00376444	1.41782	0.985664	0	0
60.19	-3.14077	1.43325	-1.61903	0.65446	0.241911	0.940443	-0.147296	-0.0829575	-0.384182	0	-0.14963	0	0	-0.136983	-0.0352588	-0.367967	0	-0.133546	0	0	-0.318749	-0.0284546	0.0717993	0.50195	-0.459918	0.196442	1.07896	0.823161	0	0	0.384015	-0.357326	-0.00360897	1.41738	0.985755	0	0
60.2	-3.14051	1.43327	-1.62025	0.654328	0.241952	0.940445	-0.147177	-0.0833022	-0.383085	0	-0.149699	0	0	-0.137134	-0.0348442	-0.368629	0	-0.133552	0	0	-0.319006	-0.0281448	0.0727882	0.501296	-0.4603	0.195721	1.07905	0.825266	0	0	0.383559	-0.357194	-0.00304879	1.41665	0.985808	0	0
60.21	-3.14047	1.43311	-1.62067	0.654155	0.241956	0.940441	-0.147292	-0.0835994	-0.382174	0	-0.149624	0	0	-0.137308	-0.0345111	-0.368718	0	-0.133916	0	0	-0.319675	-0.0277863	0.0731694	0.501242	-0.460659	0.194712	1.0789	0.826073	0	0	0.383385	-0.357355	-0.00227213	1.4159	0.984757	0	0
60.22	-3.14073	1.43317	-1.62032	0.653956	0.241947	0.940418	-0.14719	-0.0837863	-0.382478	0	-0.149549	0	0	-0.137201	-0.0343215	-0.368241	0	-0.134111	0	0	-0.320279	-0.0273644	0.0728991	0.50174	-0.460947	0.194519	1.07805	0.825221	0	0	0.38333	-0.357394	-0.00107353	1.41536	0.981202	0	0
60.23	-3.14038	1.43321	-1.62045	0.653784	0.241954	0.940417	-0.147144	-0.0839627	-0.382512	0	-0.150136	0	0	-0.137169	-0.0341684	-0.367571	0	-0.133574	0	0	-0.321068	-0.0271454	0.0721668	0.50234	-0.460987	0.195203	1.07741	0.825463	0	0	0.383187	-0.357706	-0.000323262	1.41513	0.97863	0	0
60.24	-3.13989	1.43337	-1.62058	0.653599	0.241964	0.940384	-0.146949	-0.084182	-0.382785	0	-0.149994	0	0	-0.136968	-0.0340414	-0.367103	0	-0.132893	0	0	-0.321823	-0.026947	0.0712049	0.502803	-0.461122	0.196196	1.07752	0.826747	0	0	0.383167	-0.358338	0.000354327	1.41506	0.977339	0	0
60.25	-3.13873	1.43371	-1.62123	0.653422	0.241981	0.940318	-0.146493	-0.0845065	-0.383745	0	-0.148849	0	0	-0.136502	-0.033859	-0.366878	0	-0.132279	0	0	-0.322425	-0.0268235	0.070136	0.503142	-0.461313	0.196713	1.07816	0.827808	0	0	0.383402	-0.358883	0.000790145	1.4148	0.976611	0	0
60.26	-3.13815	1.43402	-1.62135	0.653265	0.241982	0.940257	-0.146073	-0.0847433	-0.384286	0	-0.148347	0	0	-0.136053	-0.033747	-0.366408	0	-0.132038	0	0	-0.323145	-0.0266765	0.069212	0.503238	-0.461695	0.197236	1.07945	0.830091	0	0	0.38407	-0.359688	0.00173026	1.41432	0.97595	0	0
60.27	-3.13827	1.43444	-1.62086	0.653108	0.241979	0.94019	-0.145544	-0.0848565	-0.384578	0	-0.148484	0	0	-0.135408	-0.0337009	-0.366434	0	-0.131415	0	0	-0.323812	-0.0265113	0.068311	0.503605	-0.461917	0.197619	1.07977	0.833473	0	0	0.384862	-0.36065	0.0028652	1.41378	0.975876	0	0
60.28	-3.13797	1.4349	-1.62076	0.65296	0.241949	0.940148	-0.14496	-0.0850261	-0.384998	0	-0.14845	0	0	-0.134696	-0.0335599	-0.366203	0	-0.130804	0	0	-0.32448	-0.0264762	0.0673148	0.504374	-0.461943	0.197876	1.07919	0.838206	0	0	0.385516	-0.361322	0.00349488	1.41333	0.976736	0	0
60.29	-3.13712	1.43548	-1.62136	0.652865	0.241927	0.940118	-0.144262	-0.0852215	-0.385038	0	-0.148282	0	0	-0.133887	-0.0333961	-0.365893	0	-0.130805	0	0	-0.325025	-0.0266978	0.066474	0.50519	-0.461581	0.197475	1.07838	0.844652	0	0	0.386034	-0.361662	0.00355448	1.4131	0.978394	0	0
60.3	-3.13708	1.43635	-1.62128	0.652786	0.241905	0.940057	-0.143171	-0.085294	-0.384855	0	-0.148196	0	0	-0.132706	-0.0333826	-0.366038	0	-0.130735	0	0	-0.325296	-0.0268657	0.0659545	0.505778	-0.461037	0.195706	1.07772	0.854048	0	0	0.38661	-0.361652	0.0033073	1.41301	0.981144	0	0
60.31	-3.13833	1.43719	-1.61995	0.652717	0.241867	0.94001	-0.14215	-0.0851683	-0.384387	0	-0.148527	0	0	-0.131551	-0.0335516	-0.366335	0	-0.130598	0	0	-0.325729	-0.026845	0.0657508	0.506049	-0.460318	0.192239	1.07701	0.869151	0	0	0.387484	-0.361449	0.00333421	1.41265	0.985742	0	0
60.32	-3.13861	1.43902	-1.61965	0.652685	0.241869	0.939854	-0.139886	-0.0851067	-0.385007	0	-0.148365	0	0	-0.129339	-0.0336991	-0.365934	0	-0.130002	0	0	-0.325129	-0.0270299	0.0660327	0.505283	-0.459225	0.186436	1.07671	0.894048	0	0	0.388667	-0.361165	0.00381793	1.41199	0.993365	0	0
60.33	-3.12856	1.45083	-1.62634	0.652495	0.241949	0.938721	-0.126194	-0.0851695	-0.401431	0	-0.141496	0	0	-0.115218	-0.0335767	-0.36133	0	-0.124044	0	0	-0.314757	-0.0279559	0.0636941	0.498791	-0.456013	0.170278	1.08443	0.932508	0	0	0.387823	-0.363167	0.0059322	1.41715	1.006	0	0
60.34	-3.13985	1.44023	-1.61956	0.652707	0.241836	0.939732	-0.137952	-0.0850975	-0.384238	0	-0.147318	0	0	-0.127828	-0.0338217	-0.365285	0	-0.128576	0	0	-0.326774	-0.0278416	0.0676452	0.505081	-0.460785	0.186461	1.07844	0.894321	0	0	0.391339	-0.361511	0.00637364	1.41193	0.993557	0	0
